<?xml version="1.0" encoding="utf-8"?>
<!-- Generator: Adobe Illustrator 24.2.1, SVG Export Plug-In . SVG Version: 6.00 Build 0)  -->
<svg version="1.1" id="Capa_1" xmlns="http://www.w3.org/2000/svg" xmlns:xlink="http://www.w3.org/1999/xlink" x="0px" y="0px"
	 viewBox="0 0 64 64" style="enable-background:new 0 0 64 64;" xml:space="preserve">
<style type="text/css">
	.st0{fill:none;}
	.st1{fill:#FFFFFF;}
	.st2{fill:#0B1623;}
</style>
<rect class="st0" width="64" height="64"/>
<g>
	<path class="st1 inside" d="M58.4,44.4C53.6,54.2,43.5,61.2,32,61.2C15.7,61.2,2.8,48.3,2.8,32c0-11.8,7-21.9,16.8-26.4
		C18,9.3,16.8,13.5,16.8,18C16.8,34.2,30,47.2,46,47.2C50.5,47.2,54.7,46.3,58.4,44.4z"/>
	<path class="st2 outside" d="M32,0C14.3,0,0,14.3,0,32s14.3,32,32,32s32-14.3,32-32S49.7,0,32,0z M32,58.4C17.4,58.4,5.6,46.6,5.6,32
		c0-9.5,5-17.8,12.6-22.5c-0.8,2.6-1.3,5.5-1.3,8.4c0,16.3,12.9,29.2,29.2,29.2c3,0,5.8-0.5,8.4-1.3C49.8,53.4,41.5,58.4,32,58.4z"
		/>
</g>
</svg>
